<mxfile host="app.diagrams.net" modified="2023-08-23T13:55:08.948Z" agent="Mozilla/5.0 (Windows NT 10.0; Win64; x64; rv:109.0) Gecko/20100101 Firefox/116.0" etag="rBK6QBNabzDaV48oyhGF" version="21.2.8">
  <diagram name="Página-1" id="LTss8RDWHh7su5sG7oVc">
    <mxGraphModel dx="660" dy="621" grid="1" gridSize="10" guides="1" tooltips="1" connect="1" arrows="1" fold="1" page="1" pageScale="1" pageWidth="827" pageHeight="1169" math="0" shadow="0">
      <root>
        <mxCell id="0" />
        <mxCell id="1" parent="0" />
        <mxCell id="lr1M18GO0C4_3VQDVU9c-1" value="" style="whiteSpace=wrap;html=1;aspect=fixed;" vertex="1" parent="1">
          <mxGeometry x="70" y="75" width="320" height="320" as="geometry" />
        </mxCell>
        <mxCell id="lr1M18GO0C4_3VQDVU9c-2" value="" style="rounded=1;whiteSpace=wrap;html=1;fillColor=#dae8fc;strokeColor=#6c8ebf;" vertex="1" parent="1">
          <mxGeometry x="70" y="75" width="320" height="20" as="geometry" />
        </mxCell>
        <mxCell id="lr1M18GO0C4_3VQDVU9c-3" value="" style="rounded=1;whiteSpace=wrap;html=1;fillColor=#d5e8d4;strokeColor=#82b366;" vertex="1" parent="1">
          <mxGeometry x="70" y="102.5" width="30" height="95" as="geometry" />
        </mxCell>
        <mxCell id="lr1M18GO0C4_3VQDVU9c-7" value="VacinaFacil" style="text;html=1;strokeColor=none;fillColor=none;align=center;verticalAlign=middle;whiteSpace=wrap;rounded=0;" vertex="1" parent="1">
          <mxGeometry x="80" y="80" width="60" height="10" as="geometry" />
        </mxCell>
        <mxCell id="lr1M18GO0C4_3VQDVU9c-8" value="" style="ellipse;shape=cloud;whiteSpace=wrap;html=1;" vertex="1" parent="1">
          <mxGeometry x="370" y="80" width="10" height="10" as="geometry" />
        </mxCell>
        <mxCell id="lr1M18GO0C4_3VQDVU9c-9" value="" style="ellipse;shape=cloud;whiteSpace=wrap;html=1;" vertex="1" parent="1">
          <mxGeometry x="80" y="115" width="10" height="10" as="geometry" />
        </mxCell>
        <mxCell id="lr1M18GO0C4_3VQDVU9c-10" value="" style="ellipse;shape=cloud;whiteSpace=wrap;html=1;" vertex="1" parent="1">
          <mxGeometry x="80" y="140" width="10" height="10" as="geometry" />
        </mxCell>
        <mxCell id="lr1M18GO0C4_3VQDVU9c-11" value="" style="ellipse;shape=cloud;whiteSpace=wrap;html=1;" vertex="1" parent="1">
          <mxGeometry x="80" y="160" width="10" height="10" as="geometry" />
        </mxCell>
        <mxCell id="lr1M18GO0C4_3VQDVU9c-12" value="" style="ellipse;shape=cloud;whiteSpace=wrap;html=1;" vertex="1" parent="1">
          <mxGeometry x="80" y="180" width="10" height="10" as="geometry" />
        </mxCell>
        <mxCell id="lr1M18GO0C4_3VQDVU9c-22" value="Cadastro Posto" style="text;html=1;strokeColor=none;fillColor=none;align=center;verticalAlign=middle;whiteSpace=wrap;rounded=0;" vertex="1" parent="1">
          <mxGeometry x="185" y="40" width="90" height="30" as="geometry" />
        </mxCell>
        <mxCell id="lr1M18GO0C4_3VQDVU9c-26" value="&lt;font style=&quot;font-size: 8px;&quot;&gt;Gerencie suas unidades de funcionários: visualize, edite e adicione novas unidades para uma gestão eficiente.&lt;/font&gt;" style="text;html=1;strokeColor=none;fillColor=none;align=left;verticalAlign=middle;whiteSpace=wrap;rounded=0;" vertex="1" parent="1">
          <mxGeometry x="105" y="105" width="275" height="30" as="geometry" />
        </mxCell>
        <object label="Posto" Nome="" id="lr1M18GO0C4_3VQDVU9c-53">
          <mxCell style="shape=table;startSize=30;container=1;collapsible=0;childLayout=tableLayout;strokeColor=default;fontSize=13;horizontal=1;verticalAlign=middle;swimlaneLine=1;rounded=0;shadow=0;fixedRows=0;fillStyle=auto;strokeWidth=1;" vertex="1" parent="1">
            <mxGeometry x="105" y="168" width="165" height="90" as="geometry" />
          </mxCell>
        </object>
        <mxCell id="lr1M18GO0C4_3VQDVU9c-54" value="" style="shape=tableRow;horizontal=0;startSize=0;swimlaneHead=0;swimlaneBody=0;strokeColor=inherit;top=0;left=0;bottom=0;right=0;collapsible=0;dropTarget=0;fillColor=none;points=[[0,0.5],[1,0.5]];portConstraint=eastwest;fontSize=16;" vertex="1" parent="lr1M18GO0C4_3VQDVU9c-53">
          <mxGeometry y="30" width="165" height="20" as="geometry" />
        </mxCell>
        <mxCell id="lr1M18GO0C4_3VQDVU9c-55" value="&lt;font style=&quot;font-size: 13px;&quot;&gt;Nome&lt;/font&gt;" style="shape=partialRectangle;html=1;whiteSpace=wrap;connectable=0;strokeColor=inherit;overflow=hidden;fillColor=none;top=0;left=0;bottom=0;right=0;pointerEvents=1;fontSize=16;" vertex="1" parent="lr1M18GO0C4_3VQDVU9c-54">
          <mxGeometry width="55" height="20" as="geometry">
            <mxRectangle width="55" height="20" as="alternateBounds" />
          </mxGeometry>
        </mxCell>
        <mxCell id="lr1M18GO0C4_3VQDVU9c-56" value="&lt;font style=&quot;font-size: 13px;&quot;&gt;Endereço&lt;/font&gt;" style="shape=partialRectangle;html=1;whiteSpace=wrap;connectable=0;strokeColor=inherit;overflow=hidden;fillColor=none;top=0;left=0;bottom=0;right=0;pointerEvents=1;fontSize=16;" vertex="1" parent="lr1M18GO0C4_3VQDVU9c-54">
          <mxGeometry x="55" width="60" height="20" as="geometry">
            <mxRectangle width="60" height="20" as="alternateBounds" />
          </mxGeometry>
        </mxCell>
        <mxCell id="lr1M18GO0C4_3VQDVU9c-57" value="&lt;font style=&quot;font-size: 13px;&quot;&gt;Telefone&lt;/font&gt;" style="shape=partialRectangle;html=1;whiteSpace=wrap;connectable=0;strokeColor=inherit;overflow=hidden;fillColor=none;top=0;left=0;bottom=0;right=0;pointerEvents=1;fontSize=16;" vertex="1" parent="lr1M18GO0C4_3VQDVU9c-54">
          <mxGeometry x="115" width="50" height="20" as="geometry">
            <mxRectangle width="50" height="20" as="alternateBounds" />
          </mxGeometry>
        </mxCell>
        <mxCell id="lr1M18GO0C4_3VQDVU9c-58" value="" style="shape=tableRow;horizontal=0;startSize=0;swimlaneHead=0;swimlaneBody=0;strokeColor=inherit;top=0;left=0;bottom=0;right=0;collapsible=0;dropTarget=0;fillColor=none;points=[[0,0.5],[1,0.5]];portConstraint=eastwest;fontSize=16;" vertex="1" parent="lr1M18GO0C4_3VQDVU9c-53">
          <mxGeometry y="50" width="165" height="20" as="geometry" />
        </mxCell>
        <mxCell id="lr1M18GO0C4_3VQDVU9c-59" value="" style="shape=partialRectangle;html=1;whiteSpace=wrap;connectable=0;strokeColor=inherit;overflow=hidden;fillColor=none;top=0;left=0;bottom=0;right=0;pointerEvents=1;fontSize=16;" vertex="1" parent="lr1M18GO0C4_3VQDVU9c-58">
          <mxGeometry width="55" height="20" as="geometry">
            <mxRectangle width="55" height="20" as="alternateBounds" />
          </mxGeometry>
        </mxCell>
        <mxCell id="lr1M18GO0C4_3VQDVU9c-60" value="" style="shape=partialRectangle;html=1;whiteSpace=wrap;connectable=0;strokeColor=inherit;overflow=hidden;fillColor=none;top=0;left=0;bottom=0;right=0;pointerEvents=1;fontSize=16;" vertex="1" parent="lr1M18GO0C4_3VQDVU9c-58">
          <mxGeometry x="55" width="60" height="20" as="geometry">
            <mxRectangle width="60" height="20" as="alternateBounds" />
          </mxGeometry>
        </mxCell>
        <mxCell id="lr1M18GO0C4_3VQDVU9c-61" value="" style="shape=partialRectangle;html=1;whiteSpace=wrap;connectable=0;strokeColor=inherit;overflow=hidden;fillColor=none;top=0;left=0;bottom=0;right=0;pointerEvents=1;fontSize=16;" vertex="1" parent="lr1M18GO0C4_3VQDVU9c-58">
          <mxGeometry x="115" width="50" height="20" as="geometry">
            <mxRectangle width="50" height="20" as="alternateBounds" />
          </mxGeometry>
        </mxCell>
        <mxCell id="lr1M18GO0C4_3VQDVU9c-62" value="" style="shape=tableRow;horizontal=0;startSize=0;swimlaneHead=0;swimlaneBody=0;strokeColor=inherit;top=0;left=0;bottom=0;right=0;collapsible=0;dropTarget=0;fillColor=none;points=[[0,0.5],[1,0.5]];portConstraint=eastwest;fontSize=16;" vertex="1" parent="lr1M18GO0C4_3VQDVU9c-53">
          <mxGeometry y="70" width="165" height="20" as="geometry" />
        </mxCell>
        <mxCell id="lr1M18GO0C4_3VQDVU9c-63" value="" style="shape=partialRectangle;html=1;whiteSpace=wrap;connectable=0;strokeColor=inherit;overflow=hidden;fillColor=none;top=0;left=0;bottom=0;right=0;pointerEvents=1;fontSize=16;" vertex="1" parent="lr1M18GO0C4_3VQDVU9c-62">
          <mxGeometry width="55" height="20" as="geometry">
            <mxRectangle width="55" height="20" as="alternateBounds" />
          </mxGeometry>
        </mxCell>
        <mxCell id="lr1M18GO0C4_3VQDVU9c-64" value="" style="shape=partialRectangle;html=1;whiteSpace=wrap;connectable=0;strokeColor=inherit;overflow=hidden;fillColor=none;top=0;left=0;bottom=0;right=0;pointerEvents=1;fontSize=16;" vertex="1" parent="lr1M18GO0C4_3VQDVU9c-62">
          <mxGeometry x="55" width="60" height="20" as="geometry">
            <mxRectangle width="60" height="20" as="alternateBounds" />
          </mxGeometry>
        </mxCell>
        <mxCell id="lr1M18GO0C4_3VQDVU9c-65" value="" style="shape=partialRectangle;html=1;whiteSpace=wrap;connectable=0;strokeColor=inherit;overflow=hidden;fillColor=none;top=0;left=0;bottom=0;right=0;pointerEvents=1;fontSize=16;" vertex="1" parent="lr1M18GO0C4_3VQDVU9c-62">
          <mxGeometry x="115" width="50" height="20" as="geometry">
            <mxRectangle width="50" height="20" as="alternateBounds" />
          </mxGeometry>
        </mxCell>
        <object label="" Nome="" id="lr1M18GO0C4_3VQDVU9c-114">
          <mxCell style="shape=table;startSize=30;container=1;collapsible=0;childLayout=tableLayout;strokeColor=default;fontSize=13;horizontal=1;verticalAlign=middle;swimlaneLine=1;rounded=0;shadow=0;fixedRows=0;fillStyle=auto;strokeWidth=1;" vertex="1" parent="1">
            <mxGeometry x="270" y="168" width="60" height="90" as="geometry" />
          </mxCell>
        </object>
        <mxCell id="lr1M18GO0C4_3VQDVU9c-115" value="" style="shape=tableRow;horizontal=0;startSize=0;swimlaneHead=0;swimlaneBody=0;strokeColor=inherit;top=0;left=0;bottom=0;right=0;collapsible=0;dropTarget=0;fillColor=none;points=[[0,0.5],[1,0.5]];portConstraint=eastwest;fontSize=16;" vertex="1" parent="lr1M18GO0C4_3VQDVU9c-114">
          <mxGeometry y="30" width="60" height="20" as="geometry" />
        </mxCell>
        <mxCell id="lr1M18GO0C4_3VQDVU9c-116" value="" style="shape=partialRectangle;html=1;whiteSpace=wrap;connectable=0;strokeColor=inherit;overflow=hidden;fillColor=none;top=0;left=0;bottom=0;right=0;pointerEvents=1;fontSize=16;" vertex="1" parent="lr1M18GO0C4_3VQDVU9c-115">
          <mxGeometry width="20" height="20" as="geometry">
            <mxRectangle width="20" height="20" as="alternateBounds" />
          </mxGeometry>
        </mxCell>
        <mxCell id="lr1M18GO0C4_3VQDVU9c-117" value="" style="shape=partialRectangle;html=1;whiteSpace=wrap;connectable=0;strokeColor=inherit;overflow=hidden;fillColor=none;top=0;left=0;bottom=0;right=0;pointerEvents=1;fontSize=16;" vertex="1" parent="lr1M18GO0C4_3VQDVU9c-115">
          <mxGeometry x="20" width="20" height="20" as="geometry">
            <mxRectangle width="20" height="20" as="alternateBounds" />
          </mxGeometry>
        </mxCell>
        <mxCell id="lr1M18GO0C4_3VQDVU9c-118" value="" style="shape=partialRectangle;html=1;whiteSpace=wrap;connectable=0;strokeColor=inherit;overflow=hidden;fillColor=none;top=0;left=0;bottom=0;right=0;pointerEvents=1;fontSize=16;" vertex="1" parent="lr1M18GO0C4_3VQDVU9c-115">
          <mxGeometry x="40" width="20" height="20" as="geometry">
            <mxRectangle width="20" height="20" as="alternateBounds" />
          </mxGeometry>
        </mxCell>
        <mxCell id="lr1M18GO0C4_3VQDVU9c-119" value="" style="shape=tableRow;horizontal=0;startSize=0;swimlaneHead=0;swimlaneBody=0;strokeColor=inherit;top=0;left=0;bottom=0;right=0;collapsible=0;dropTarget=0;fillColor=none;points=[[0,0.5],[1,0.5]];portConstraint=eastwest;fontSize=16;" vertex="1" parent="lr1M18GO0C4_3VQDVU9c-114">
          <mxGeometry y="50" width="60" height="20" as="geometry" />
        </mxCell>
        <mxCell id="lr1M18GO0C4_3VQDVU9c-120" value="" style="shape=partialRectangle;html=1;whiteSpace=wrap;connectable=0;strokeColor=inherit;overflow=hidden;fillColor=none;top=0;left=0;bottom=0;right=0;pointerEvents=1;fontSize=16;" vertex="1" parent="lr1M18GO0C4_3VQDVU9c-119">
          <mxGeometry width="20" height="20" as="geometry">
            <mxRectangle width="20" height="20" as="alternateBounds" />
          </mxGeometry>
        </mxCell>
        <mxCell id="lr1M18GO0C4_3VQDVU9c-121" value="" style="shape=partialRectangle;html=1;whiteSpace=wrap;connectable=0;strokeColor=inherit;overflow=hidden;fillColor=none;top=0;left=0;bottom=0;right=0;pointerEvents=1;fontSize=16;" vertex="1" parent="lr1M18GO0C4_3VQDVU9c-119">
          <mxGeometry x="20" width="20" height="20" as="geometry">
            <mxRectangle width="20" height="20" as="alternateBounds" />
          </mxGeometry>
        </mxCell>
        <mxCell id="lr1M18GO0C4_3VQDVU9c-122" value="" style="shape=partialRectangle;html=1;whiteSpace=wrap;connectable=0;strokeColor=inherit;overflow=hidden;fillColor=none;top=0;left=0;bottom=0;right=0;pointerEvents=1;fontSize=16;" vertex="1" parent="lr1M18GO0C4_3VQDVU9c-119">
          <mxGeometry x="40" width="20" height="20" as="geometry">
            <mxRectangle width="20" height="20" as="alternateBounds" />
          </mxGeometry>
        </mxCell>
        <mxCell id="lr1M18GO0C4_3VQDVU9c-123" value="" style="shape=tableRow;horizontal=0;startSize=0;swimlaneHead=0;swimlaneBody=0;strokeColor=inherit;top=0;left=0;bottom=0;right=0;collapsible=0;dropTarget=0;fillColor=none;points=[[0,0.5],[1,0.5]];portConstraint=eastwest;fontSize=16;" vertex="1" parent="lr1M18GO0C4_3VQDVU9c-114">
          <mxGeometry y="70" width="60" height="20" as="geometry" />
        </mxCell>
        <mxCell id="lr1M18GO0C4_3VQDVU9c-124" value="" style="shape=partialRectangle;html=1;whiteSpace=wrap;connectable=0;strokeColor=inherit;overflow=hidden;fillColor=none;top=0;left=0;bottom=0;right=0;pointerEvents=1;fontSize=16;" vertex="1" parent="lr1M18GO0C4_3VQDVU9c-123">
          <mxGeometry width="20" height="20" as="geometry">
            <mxRectangle width="20" height="20" as="alternateBounds" />
          </mxGeometry>
        </mxCell>
        <mxCell id="lr1M18GO0C4_3VQDVU9c-125" value="" style="shape=partialRectangle;html=1;whiteSpace=wrap;connectable=0;strokeColor=inherit;overflow=hidden;fillColor=none;top=0;left=0;bottom=0;right=0;pointerEvents=1;fontSize=16;" vertex="1" parent="lr1M18GO0C4_3VQDVU9c-123">
          <mxGeometry x="20" width="20" height="20" as="geometry">
            <mxRectangle width="20" height="20" as="alternateBounds" />
          </mxGeometry>
        </mxCell>
        <mxCell id="lr1M18GO0C4_3VQDVU9c-126" value="" style="shape=partialRectangle;html=1;whiteSpace=wrap;connectable=0;strokeColor=inherit;overflow=hidden;fillColor=none;top=0;left=0;bottom=0;right=0;pointerEvents=1;fontSize=16;" vertex="1" parent="lr1M18GO0C4_3VQDVU9c-123">
          <mxGeometry x="40" width="20" height="20" as="geometry">
            <mxRectangle width="20" height="20" as="alternateBounds" />
          </mxGeometry>
        </mxCell>
        <mxCell id="lr1M18GO0C4_3VQDVU9c-127" value="" style="shape=image;html=1;verticalAlign=top;verticalLabelPosition=bottom;labelBackgroundColor=#ffffff;imageAspect=0;aspect=fixed;image=https://cdn1.iconfinder.com/data/icons/CrystalClear/48x48/mimetypes/mime_txt.png;rounded=0;shadow=0;fillStyle=auto;strokeColor=default;fontFamily=Helvetica;fontSize=16;fontColor=default;startSize=30;fillColor=default;" vertex="1" parent="1">
          <mxGeometry x="275" y="201.5" width="14" height="14" as="geometry" />
        </mxCell>
        <mxCell id="lr1M18GO0C4_3VQDVU9c-128" value="" style="html=1;verticalLabelPosition=bottom;labelBackgroundColor=#ffffff;verticalAlign=top;shadow=0;dashed=0;strokeWidth=2;shape=mxgraph.ios7.misc.delete;fillColor=#ff0000;strokeColor=#ffffff;sketch=0;rounded=0;fillStyle=auto;fontFamily=Helvetica;fontSize=16;fontColor=default;startSize=30;" vertex="1" parent="1">
          <mxGeometry x="294" y="202.5" width="12" height="12" as="geometry" />
        </mxCell>
        <mxCell id="lr1M18GO0C4_3VQDVU9c-129" value="&lt;font style=&quot;font-size: 10px;&quot;&gt;Pesquisa:&lt;/font&gt;" style="text;html=1;strokeColor=none;fillColor=none;align=center;verticalAlign=middle;whiteSpace=wrap;rounded=0;fontSize=16;fontFamily=Helvetica;fontColor=default;" vertex="1" parent="1">
          <mxGeometry x="100" y="135" width="60" height="30" as="geometry" />
        </mxCell>
        <mxCell id="lr1M18GO0C4_3VQDVU9c-130" value="" style="rounded=1;whiteSpace=wrap;html=1;shadow=0;fillStyle=auto;strokeColor=default;fontFamily=Helvetica;fontSize=16;fontColor=default;startSize=30;fillColor=default;" vertex="1" parent="1">
          <mxGeometry x="160" y="145" width="90" height="15" as="geometry" />
        </mxCell>
        <mxCell id="lr1M18GO0C4_3VQDVU9c-131" value="&lt;div align=&quot;center&quot;&gt;&lt;font style=&quot;font-size: 10px;&quot;&gt;Novo&lt;/font&gt;&lt;/div&gt;" style="rounded=1;whiteSpace=wrap;html=1;shadow=0;fillStyle=auto;strokeColor=#82b366;fontFamily=Helvetica;fontSize=16;startSize=30;fillColor=#d5e8d4;align=center;verticalAlign=bottom;horizontal=1;" vertex="1" parent="1">
          <mxGeometry x="270" y="142.5" width="60" height="20" as="geometry" />
        </mxCell>
        <mxCell id="lr1M18GO0C4_3VQDVU9c-132" value="Modal Novo Posto Ou Editar" style="text;html=1;strokeColor=none;fillColor=none;align=center;verticalAlign=middle;whiteSpace=wrap;rounded=0;" vertex="1" parent="1">
          <mxGeometry x="470" y="40" width="90" height="30" as="geometry" />
        </mxCell>
        <mxCell id="lr1M18GO0C4_3VQDVU9c-133" value="" style="whiteSpace=wrap;html=1;aspect=fixed;rounded=0;shadow=0;fillStyle=auto;strokeColor=default;fontFamily=Helvetica;fontSize=16;fontColor=default;startSize=30;fillColor=default;" vertex="1" parent="1">
          <mxGeometry x="413" y="84.5" width="257" height="257" as="geometry" />
        </mxCell>
        <mxCell id="lr1M18GO0C4_3VQDVU9c-134" value="&lt;font style=&quot;font-size: 10px;&quot;&gt;Nome&lt;/font&gt;" style="text;html=1;strokeColor=none;fillColor=none;align=center;verticalAlign=middle;whiteSpace=wrap;rounded=0;fontSize=16;fontFamily=Helvetica;fontColor=default;" vertex="1" parent="1">
          <mxGeometry x="420" y="115" width="60" height="30" as="geometry" />
        </mxCell>
        <mxCell id="lr1M18GO0C4_3VQDVU9c-137" value="" style="rounded=1;whiteSpace=wrap;html=1;shadow=0;fillStyle=auto;strokeColor=default;fontFamily=Helvetica;fontSize=16;fontColor=default;startSize=30;fillColor=default;" vertex="1" parent="1">
          <mxGeometry x="476.5" y="125" width="90" height="15" as="geometry" />
        </mxCell>
        <mxCell id="lr1M18GO0C4_3VQDVU9c-140" value="Cadastro novo Posto" style="text;html=1;strokeColor=none;fillColor=none;align=center;verticalAlign=middle;whiteSpace=wrap;rounded=0;" vertex="1" parent="1">
          <mxGeometry x="476.5" y="85" width="130" height="30" as="geometry" />
        </mxCell>
        <mxCell id="lr1M18GO0C4_3VQDVU9c-142" value="&lt;font style=&quot;font-size: 10px;&quot;&gt;Telefone&lt;/font&gt;" style="text;html=1;strokeColor=none;fillColor=none;align=center;verticalAlign=middle;whiteSpace=wrap;rounded=0;fontSize=16;fontFamily=Helvetica;fontColor=default;" vertex="1" parent="1">
          <mxGeometry x="420" y="140" width="60" height="28" as="geometry" />
        </mxCell>
        <mxCell id="lr1M18GO0C4_3VQDVU9c-143" value="" style="rounded=1;whiteSpace=wrap;html=1;shadow=0;fillStyle=auto;strokeColor=default;fontFamily=Helvetica;fontSize=16;fontColor=default;startSize=30;fillColor=default;" vertex="1" parent="1">
          <mxGeometry x="476.5" y="146.5" width="90" height="15" as="geometry" />
        </mxCell>
        <mxCell id="lr1M18GO0C4_3VQDVU9c-144" value="&lt;font style=&quot;font-size: 10px;&quot;&gt;CEP&lt;/font&gt;" style="text;html=1;strokeColor=none;fillColor=none;align=center;verticalAlign=middle;whiteSpace=wrap;rounded=0;fontSize=16;fontFamily=Helvetica;fontColor=default;strokeWidth=8;" vertex="1" parent="1">
          <mxGeometry x="420" y="162.5" width="55" height="27.5" as="geometry" />
        </mxCell>
        <mxCell id="lr1M18GO0C4_3VQDVU9c-145" value="" style="rounded=1;whiteSpace=wrap;html=1;shadow=0;fillStyle=auto;strokeColor=default;fontFamily=Helvetica;fontSize=16;fontColor=default;startSize=30;fillColor=default;" vertex="1" parent="1">
          <mxGeometry x="476.5" y="172.5" width="90" height="15" as="geometry" />
        </mxCell>
        <mxCell id="lr1M18GO0C4_3VQDVU9c-149" value="&lt;font style=&quot;font-size: 10px;&quot;&gt;Rua&lt;/font&gt;" style="text;html=1;strokeColor=none;fillColor=none;align=center;verticalAlign=middle;whiteSpace=wrap;rounded=0;fontSize=16;fontFamily=Helvetica;fontColor=default;strokeWidth=8;" vertex="1" parent="1">
          <mxGeometry x="417.5" y="180" width="60" height="30" as="geometry" />
        </mxCell>
        <mxCell id="lr1M18GO0C4_3VQDVU9c-150" value="" style="rounded=1;whiteSpace=wrap;html=1;shadow=0;fillStyle=auto;strokeColor=default;fontFamily=Helvetica;fontSize=16;fontColor=default;startSize=30;fillColor=default;" vertex="1" parent="1">
          <mxGeometry x="475" y="197.5" width="90" height="15" as="geometry" />
        </mxCell>
        <mxCell id="lr1M18GO0C4_3VQDVU9c-151" value="&lt;font style=&quot;font-size: 10px;&quot;&gt;ETC....&lt;/font&gt;" style="text;html=1;strokeColor=none;fillColor=none;align=center;verticalAlign=middle;whiteSpace=wrap;rounded=0;fontSize=16;fontFamily=Helvetica;fontColor=default;strokeWidth=8;" vertex="1" parent="1">
          <mxGeometry x="420" y="210" width="60" height="30" as="geometry" />
        </mxCell>
        <mxCell id="lr1M18GO0C4_3VQDVU9c-152" value="&lt;font style=&quot;font-size: 10px;&quot;&gt;Salvar&lt;/font&gt;" style="rounded=1;whiteSpace=wrap;html=1;shadow=0;fillStyle=auto;strokeColor=#82b366;fontFamily=Helvetica;fontSize=16;startSize=30;fillColor=#d5e8d4;align=center;verticalAlign=bottom;horizontal=1;" vertex="1" parent="1">
          <mxGeometry x="450" y="310" width="60" height="20" as="geometry" />
        </mxCell>
        <mxCell id="lr1M18GO0C4_3VQDVU9c-153" value="&lt;font style=&quot;font-size: 10px;&quot;&gt;ETC....&lt;/font&gt;" style="text;html=1;strokeColor=none;fillColor=none;align=center;verticalAlign=middle;whiteSpace=wrap;rounded=0;fontSize=16;fontFamily=Helvetica;fontColor=default;strokeWidth=8;" vertex="1" parent="1">
          <mxGeometry x="420" y="228" width="60" height="30" as="geometry" />
        </mxCell>
        <mxCell id="lr1M18GO0C4_3VQDVU9c-154" value="&lt;font style=&quot;font-size: 10px;&quot;&gt;Cancelar&lt;/font&gt;" style="rounded=1;whiteSpace=wrap;html=1;shadow=0;fillStyle=auto;strokeColor=#b85450;fontFamily=Helvetica;fontSize=16;startSize=30;fillColor=#f8cecc;align=center;verticalAlign=bottom;horizontal=1;" vertex="1" parent="1">
          <mxGeometry x="566.5" y="310" width="60" height="20" as="geometry" />
        </mxCell>
        <mxCell id="lr1M18GO0C4_3VQDVU9c-155" value="" style="shape=mxgraph.mockup.markup.redX;fillColor=#ff0000;html=1;shadow=0;whiteSpace=wrap;strokeColor=none;rounded=0;fillStyle=auto;fontFamily=Helvetica;fontSize=16;fontColor=default;startSize=30;" vertex="1" parent="1">
          <mxGeometry x="650" y="90" width="10" height="10" as="geometry" />
        </mxCell>
      </root>
    </mxGraphModel>
  </diagram>
</mxfile>
